<svg width="190" height="30" viewBox="0 0 190 30" fill="none" xmlns="http://www.w3.org/2000/svg">
<path d="M30.2045 6.17642L0.178514 29.2118C0.106867 29.2551 0.0520142 29.3215 0.0229564 29.4001C-0.0061015 29.4788 -0.00760196 29.5649 0.0186168 29.6446C0.0448355 29.7242 0.0972007 29.7925 0.167248 29.8384C0.237294 29.8842 0.3208 29.9049 0.404089 29.8969H12.3133C12.4879 29.8977 12.6602 29.858 12.8168 29.7807C12.9734 29.7034 13.1099 29.5907 13.2157 29.4516L30.6967 6.6629C30.7611 6.59748 30.7968 6.50913 30.7962 6.41726C30.7956 6.32538 30.7586 6.2375 30.6933 6.17299C30.628 6.10848 30.5399 6.07261 30.4482 6.07325C30.3565 6.07389 30.2689 6.111 30.2045 6.17642Z" fill="#32846F"/>
<path d="M49.9135 0.0308956L34.4766 10.0686C34.4122 10.1095 34.3605 10.1679 34.3278 10.2371C34.2952 10.3062 34.2828 10.3832 34.292 10.4591L35.6593 21.0518C35.668 21.1126 35.6947 21.1694 35.7358 21.215C35.7769 21.2605 35.8306 21.2927 35.8901 21.3074C35.9496 21.3222 36.0121 21.3187 36.0697 21.2976C36.1272 21.2765 36.1771 21.2386 36.2131 21.1889L50.31 0.469371C50.3447 0.412535 50.3601 0.345958 50.3539 0.279595C50.3477 0.213233 50.3202 0.150666 50.2756 0.101278C50.2309 0.0518889 50.1715 0.0183298 50.1062 0.00563673C50.041 -0.00705632 49.9733 0.00182448 49.9135 0.0308956Z" fill="#32846F"/>
<path d="M27.846 22.237L22.6844 29.3764C22.6454 29.4306 22.6221 29.4947 22.617 29.5613C22.612 29.628 22.6253 29.6948 22.6557 29.7543C22.6861 29.8138 22.7324 29.8638 22.7893 29.8986C22.8463 29.9335 22.9116 29.952 22.9784 29.952H29.4867C29.5165 29.9513 29.5457 29.9443 29.5725 29.9315C29.5994 29.9187 29.6233 29.9005 29.6426 29.8779C29.662 29.8552 29.6763 29.8288 29.6848 29.8002C29.6933 29.7717 29.6957 29.7417 29.6919 29.7122L28.4955 22.3877C28.4831 22.3176 28.4504 22.2527 28.4015 22.201C28.3526 22.1494 28.2896 22.1133 28.2204 22.0973C28.1512 22.0812 28.0789 22.0859 28.0123 22.1107C27.9457 22.1356 27.8878 22.1795 27.846 22.237Z" fill="#32846F"/>
<path d="M67.0665 29.507L56.3537 5.21783C56.3286 5.16055 56.2886 5.11103 56.2379 5.07451C56.1873 5.03799 56.1278 5.01579 56.0656 5.01019C56.0034 5.00459 55.9409 5.01581 55.8846 5.04269C55.8282 5.06957 55.7801 5.11112 55.7452 5.163L39.1188 29.3289C39.0822 29.3818 39.061 29.4438 39.0574 29.5081C39.0538 29.5724 39.068 29.6364 39.0984 29.6931C39.1288 29.7498 39.1743 29.797 39.2298 29.8294C39.2852 29.8619 39.3486 29.8783 39.4128 29.877L66.7588 30.0003C66.8163 29.9987 66.8723 29.9828 66.9222 29.9542C66.972 29.9256 67.0141 29.8851 67.0445 29.8362C67.0749 29.7874 67.0928 29.7318 67.0967 29.6744C67.1005 29.617 67.0901 29.5594 67.0665 29.507Z" fill="#32846F"/>
<path d="M90.3479 29.7094L82.5351 16.6715V29.7094H78.5474V10.8506H82.6436L90.3479 23.6777V10.8506H94.3356V29.7094H90.3479Z" fill="#333333"/>
<path d="M110.463 23.6777H100.806C100.86 24.8015 101.041 25.6005 101.349 26.0746C101.873 26.8472 102.696 27.2335 103.817 27.2335C105.21 27.2335 106.141 26.6716 106.611 25.5478H110.301C109.885 26.9174 109.071 28.0061 107.859 28.8139C106.666 29.604 105.264 29.9991 103.654 29.9991C101.466 29.9991 99.7841 29.288 98.6086 27.8656C97.5778 26.6189 97.0623 24.9771 97.0623 22.9402C97.0623 20.4644 97.7315 18.5504 99.0698 17.1983C100.245 16.0394 101.792 15.4599 103.709 15.4599C105.173 15.4599 106.458 15.8111 107.561 16.5135C108.664 17.2159 109.451 18.1992 109.921 19.4635C110.301 20.4468 110.49 21.6321 110.49 23.0192C110.49 23.1948 110.481 23.4143 110.463 23.6777ZM106.584 21.2809C106.403 19.244 105.436 18.2255 103.681 18.2255C102.036 18.2255 101.095 19.244 100.86 21.2809H106.584Z" fill="#333333"/>
<path d="M125.4 28.7875V29.7094H121.33C121.059 29.3758 120.915 28.9016 120.896 28.2871C119.902 29.4284 118.455 29.9991 116.556 29.9991C115.163 29.9991 114.042 29.5865 113.192 28.7612C112.505 28.0939 112.161 27.172 112.161 25.9956C112.161 24.2396 112.885 22.9929 114.332 22.2554C114.946 21.9393 116.167 21.6233 117.994 21.3072L120.924 20.7804L120.896 19.7795C120.878 18.8489 120.155 18.3836 118.726 18.3836C117.804 18.3836 117.153 18.524 116.773 18.805C116.411 19.0684 116.185 19.56 116.095 20.28H112.514C112.731 17.0666 114.775 15.4599 118.645 15.4599C120.779 15.4599 122.316 15.8287 123.257 16.5662C124.107 17.2685 124.532 18.3309 124.532 19.7532V27.5496C124.532 28.1817 124.821 28.5944 125.4 28.7875ZM120.924 22.9666L118.184 23.5724C117.406 23.748 116.827 24.0026 116.448 24.3362C116.086 24.6698 115.905 25.0825 115.905 25.5741C115.905 26.575 116.574 27.0755 117.912 27.0755C119.848 27.0755 120.842 26.0482 120.896 23.9938L120.924 22.9666Z" fill="#333333"/>
<path d="M127.92 15.7497H131.663V18.4099C132.134 16.4433 133.472 15.4599 135.678 15.4599C136.022 15.4599 136.266 15.4599 136.411 15.4599L136.438 19.042C135.986 18.9542 135.515 18.9104 135.027 18.9104C133.797 18.9104 132.947 19.1298 132.477 19.5688C131.935 20.0605 131.663 20.9472 131.663 22.2291V29.7094H127.92V15.7497Z" fill="#333333"/>
<path d="M142.076 10.8506V29.7094H138.332V10.8506H142.076Z" fill="#333333"/>
<path d="M158.202 23.6777H148.544C148.598 24.8015 148.779 25.6005 149.087 26.0746C149.611 26.8472 150.434 27.2335 151.555 27.2335C152.948 27.2335 153.879 26.6716 154.349 25.5478H158.039C157.623 26.9174 156.809 28.0061 155.597 28.8139C154.404 29.604 153.002 29.9991 151.392 29.9991C149.204 29.9991 147.522 29.288 146.347 27.8656C145.316 26.6189 144.8 24.9771 144.8 22.9402C144.8 20.4644 145.47 18.5504 146.808 17.1983C147.983 16.0394 149.53 15.4599 151.447 15.4599C152.912 15.4599 154.196 15.8111 155.299 16.5135C156.402 17.2159 157.189 18.1992 157.659 19.4635C158.039 20.4468 158.229 21.6321 158.229 23.0192C158.229 23.1948 158.22 23.4143 158.202 23.6777ZM154.322 21.2809C154.141 19.244 153.174 18.2255 151.42 18.2255C149.774 18.2255 148.833 19.244 148.598 21.2809H154.322Z" fill="#333333"/>
<path d="M160.849 15.7497H164.593V17.7251C165.605 16.215 167.034 15.4599 168.879 15.4599C170.524 15.4599 171.772 15.934 172.622 16.8822C173.346 17.7251 173.707 18.8665 173.707 20.3063V29.7094H169.991V21.0438C169.991 19.3757 169.186 18.5416 167.577 18.5416C166.672 18.5416 165.949 18.7962 165.406 19.3054C164.864 19.7971 164.593 20.4556 164.593 21.2809V29.7094H160.849V15.7497Z" fill="#333333"/>
<path d="M190 10.8506V29.7094H186.256V28.1554C185.388 29.3845 184.077 29.9991 182.323 29.9991C180.424 29.9991 178.896 29.2265 177.738 27.6813C176.744 26.3643 176.246 24.7225 176.246 22.7559C176.246 20.4205 176.879 18.5767 178.145 17.2246C179.248 16.0482 180.632 15.4599 182.296 15.4599C184.05 15.4599 185.37 16.1096 186.256 17.409V10.8506H190ZM183.137 18.4362C182.196 18.4362 181.437 18.8313 180.858 19.6215C180.279 20.4117 179.99 21.4477 179.99 22.7295C179.99 23.9938 180.27 25.021 180.831 25.8112C181.409 26.5838 182.178 26.9701 183.137 26.9701C184.095 26.9701 184.855 26.5838 185.415 25.8112C185.994 25.0386 186.283 24.0114 186.283 22.7295C186.283 21.4301 185.994 20.3941 185.415 19.6215C184.837 18.8313 184.077 18.4362 183.137 18.4362Z" fill="#333333"/>
</svg>
